// Enum definitions
Enum StatusEnum {
  ACTIVE
  IN_ACTIVE
}

Enum AnswerTypesEnum {
  CHOICE
  INPUT
}

Enum LessonTypesEnum {
  VIDEO
  DOCS
  EXERCISE
}

Enum QuestionTypesEnum {
  CHOICE
  INPUT
}

Enum QuestionFileTypesEnum {
  AUDIO
  IMAGE
}


Enum AuthProvidersEnum {
  email
  facebook
  google
  twitter
  apple
}

Enum PracticeTypeEnum {
  READING
  LISTENING
  WRITING 
  SPEAKING
}

Enum DifficultyEnum {
  EASY
  MEDIUM 
  HARD
}

Enum ConversationTypesEnum {
  PRIVATE
  PUBLIC
}

Table answer {
  id uuid [pk]
  content string
  file_id uuid
  answerType AnswerTypesEnum
  isCorrect boolean
  status StatusEnum
  question_id uuid
  createdAt timestamp
  updatedAt timestamp
  createdBy uuid
  updatedBy uuid
}

Table category {
  id uuid [pk]
  name string
  createdAt timestamp
  updatedAt timestamp
}

Table course {
  id uuid [pk]
  photo_id uuid
  category_id uuid
  name string
  price decimal
  description string
  status StatusEnum
  createdAt timestamp
  updatedAt timestamp
  deletedAt timestamp
}

Table invoice {
  id uuid [pk]
  name string
  description string
  money decimal
  user_id int [ref: > user.id]
  orderCode int
  paymentStatus bool
  status StatusEnum
  createdAt timestamp
  updatedAt timestamp
  deletedAt timestamp
}

table invoce_product {
  id uuid [pk]
  createdAt string
  updatedAt string
  invoiceId uuid [null, ref: > invoice.id]
  courseId uuid [null, ref: > course.id]
  practiceId uuid [null, ref: > practice_exercise.id]
}

Table lesson_course {
  id uuid [pk]
  status StatusEnum
  position int
  lesson_id uuid
  course_id uuid
  createdAt timestamp
  updatedAt timestamp
}

Table lesson {
  id uuid [pk]
  title string
  content string
  file_id uuid
  lessonType LessonTypesEnum
  stars decimal
  totalStars int
  status StatusEnum
  isSequence boolean
  createdAt timestamp
  updatedAt timestamp
  deletedAt timestamp
}

Table practice_exercise {
  id uuid [pk]
  user_id number
  title string
  description string
  price decimal
  content string // Nội dung bài luyện tập
  practiceType PracticeTypeEnum
  difficulty DifficultyEnum
  status StatusEnum
  createdAt timestamp
  updatedAt timestamp
}

Table answer_history {
    id uuid [pk]
    practice_id uuid [ref: > practice_exercise.id, null]  // Null nếu làm bài trong lesson
    lesson_id uuid [ref: > lesson.id, null]  // Null nếu làm practice
    total_score decimal
    status StatusEnum // COMPLETED, IN_PROGRESS
    startedAt timestamp  
    completedAt timestamp
    createdAt timestamp
    updatedAt timestamp
    user_id number
    answers json
}

Table question {
    id uuid [pk]
    title string
    content string
    position int
    file_id uuid 
    questionType QuestionTypesEnum
    fileType QuestionFileTypesEnum
    status StatusEnum
    category_id uuid
    time number
    explain string
    lesson_id uuid [null]  // Null nếu thuộc practice
    practice_id uuid [null]  // Null nếu thuộc lesson
    createdAt timestamp
    updatedAt timestamp
}


Table role {
  id int [pk]
  name string
  permissions string[]
}

Table session {
  id int [pk]
  hash string
  user_id int
  createdAt timestamp
  updatedAt timestamp
  deletedAt timestamp
}

Table user_course {
  id uuid [pk]
  status StatusEnum
  user_id int
  course_id uuid
  current_lesson uuid 
  lastPositon int
  createdAt timestamp
  updatedAt timestamp
}



Table file {
  id uuid [pk]
  path string
}

Table user {
  id int [pk]
  email string
  password string
  provider AuthProvidersEnum
  socialId string
  photo_id uuid
  role_id int
  fullName string
  dob date
  status StatusEnum
  createdAt timestamp
  updatedAt timestamp
  deletedAt timestamp
}

Table conversation {
  id uuid [pk]
  conversationType ConversationTypesEnum [default: 'PRIVATE']
  conversationName string
  createdAt Date
  updatedAt Date
}

Table chat {
  id uuid [pk]
  message string
  file string
  conversationId uuid
  userId uuid
  createdAt Date
  updatedAt Date
}

Table user_conversation {
  id uuid [pk]
  conversationId uuid
  userId uuid
  createdAt timestamp
  updatedAt timestamp
}

// Relationships
Ref: user_conversation.userId > user.id
Ref: user_conversation.conversationId > conversation.id
Ref: chat.conversationId > conversation.id
Ref: chat.userId > user.id
Ref: answer.question_id > question.id
Ref: course.photo_id > file.id
Ref: course.category_id > category.id
Ref: lesson_course.lesson_id > lesson.id
Ref: lesson_course.course_id > course.id
Ref: question.category_id > category.id
Ref: answer_history.user_id > user.id
Ref: session.user_id > user.id
Ref: user_course.user_id > user.id
Ref: user_course.course_id > course.id
Ref: user.photo_id > file.id
Ref: user.role_id > role.id
Ref: lesson.file_id > file.id
Ref: question.file_id > file.id
Ref: practice_exercise.user_id > user.id
Ref: question.lesson_id > lesson.id
Ref: question.practice_id > practice_exercise.id